<svg xmlns="http://www.w3.org/2000/svg" xmlns:xlink="http://www.w3.org/1999/xlink" width="500" zoomAndPan="magnify" viewBox="0 0 375 374.999991" height="500" preserveAspectRatio="xMidYMid meet" version="1.0"><defs><filter x="0%" y="0%" width="100%" xlink:type="simple" xlink:actuate="onLoad" height="100%" id="id1" xlink:show="other"><feColorMatrix values="0 0 0 0 1 0 0 0 0 1 0 0 0 0 1 0 0 0 1 0" color-interpolation-filters="sRGB"/></filter><clipPath id="id2"><path d="M 86.863281 69 L 187 69 L 187 234.757812 L 86.863281 234.757812 Z M 86.863281 69 " clip-rule="nonzero"/></clipPath><clipPath id="id3"><path d="M 175 68 L 274.363281 68 L 274.363281 234.757812 L 175 234.757812 Z M 175 68 " clip-rule="nonzero"/></clipPath><clipPath id="id4"><path d="M 86.863281 5 L 274.363281 5 L 274.363281 145 L 86.863281 145 Z M 86.863281 5 " clip-rule="nonzero"/></clipPath><mask id="id5"><g filter="url(#id1)"><rect x="-37.5" width="450" fill="rgb(0%, 0%, 0%)" y="-37.499999" height="449.999989" fill-opacity="0.3373"/></g></mask><clipPath id="id6"><path d="M 2.863281 67 L 103 67 L 103 232.554688 L 2.863281 232.554688 Z M 2.863281 67 " clip-rule="nonzero"/></clipPath><clipPath id="id7"><path d="M 91 66 L 190.363281 66 L 190.363281 232.554688 L 91 232.554688 Z M 91 66 " clip-rule="nonzero"/></clipPath><clipPath id="id8"><path d="M 2.863281 3 L 190.363281 3 L 190.363281 143 L 2.863281 143 Z M 2.863281 3 " clip-rule="nonzero"/></clipPath><clipPath id="id9"><rect x="0" width="191" y="0" height="235"/></clipPath></defs><g clip-path="url(#id2)"><path fill="rgb(36.859131%, 9.01947%, 92.158508%)" d="M 180.960938 234.574219 C 179.71875 234.574219 178.480469 234.179688 177.4375 233.417969 L 89.289062 168.578125 C 87.765625 167.453125 86.863281 165.671875 86.863281 163.777344 L 86.863281 75.324219 C 86.863281 73.09375 88.109375 71.050781 90.09375 70.027344 C 92.074219 69.003906 94.460938 69.175781 96.277344 70.476562 L 184.421875 133.507812 C 185.984375 134.628906 186.914062 136.433594 186.914062 138.359375 L 186.914062 228.617188 C 186.914062 230.863281 185.652344 232.917969 183.648438 233.933594 C 182.800781 234.363281 181.878906 234.574219 180.960938 234.574219 Z M 98.769531 160.761719 L 175.011719 216.839844 L 175.011719 141.425781 L 98.769531 86.90625 Z M 98.769531 160.761719 " fill-opacity="1" fill-rule="nonzero"/></g><g clip-path="url(#id3)"><path fill="rgb(36.859131%, 9.01947%, 92.158508%)" d="M 180.960938 234.574219 C 180.039062 234.574219 179.117188 234.359375 178.265625 233.925781 C 176.265625 232.910156 175.007812 230.855469 175.007812 228.613281 L 175.007812 138.355469 C 175.007812 136.449219 175.921875 134.65625 177.464844 133.535156 L 264.910156 69.992188 C 266.71875 68.675781 269.117188 68.488281 271.109375 69.503906 C 273.105469 70.519531 274.359375 72.574219 274.359375 74.8125 L 274.359375 164.683594 C 274.359375 166.585938 273.453125 168.375 271.917969 169.496094 L 184.472656 233.425781 C 183.433594 234.1875 182.203125 234.574219 180.960938 234.574219 Z M 186.917969 141.394531 L 186.917969 216.882812 L 262.457031 161.65625 L 262.457031 86.503906 Z M 186.917969 141.394531 " fill-opacity="1" fill-rule="nonzero"/></g><g clip-path="url(#id4)"><path fill="rgb(36.859131%, 9.01947%, 92.158508%)" d="M 180.960938 144.316406 C 179.75 144.316406 178.539062 143.945312 177.503906 143.207031 L 89.355469 80.175781 C 87.796875 79.058594 86.867188 77.261719 86.863281 75.34375 C 86.855469 73.429688 87.769531 71.625 89.320312 70.5 L 177.46875 6.570312 C 179.5625 5.054688 182.386719 5.0625 184.472656 6.582031 L 271.917969 70.511719 C 273.460938 71.636719 274.367188 73.433594 274.363281 75.34375 C 274.355469 77.253906 273.4375 79.042969 271.886719 80.160156 L 184.441406 143.191406 C 183.402344 143.9375 182.183594 144.316406 180.960938 144.316406 Z M 103.011719 75.292969 L 180.949219 131.023438 L 258.269531 75.292969 L 180.949219 18.765625 Z M 103.011719 75.292969 " fill-opacity="1" fill-rule="nonzero"/></g><g mask="url(#id5)"><g transform="matrix(1, 0, 0, 1, 84, 138)"><g clip-path="url(#id9)"><g clip-path="url(#id6)"><path fill="rgb(36.859131%, 9.01947%, 92.158508%)" d="M 96.960938 232.371094 C 95.71875 232.371094 94.480469 231.980469 93.4375 231.214844 L 5.289062 166.375 C 3.765625 165.253906 2.863281 163.472656 2.863281 161.574219 L 2.863281 73.125 C 2.863281 70.890625 4.109375 68.847656 6.09375 67.824219 C 8.074219 66.800781 10.460938 66.976562 12.277344 68.277344 L 100.421875 131.308594 C 101.984375 132.425781 102.914062 134.230469 102.914062 136.15625 L 102.914062 226.414062 C 102.914062 228.660156 101.652344 230.71875 99.648438 231.730469 C 98.800781 232.160156 97.878906 232.371094 96.960938 232.371094 Z M 14.769531 158.558594 L 91.011719 214.640625 L 91.011719 139.222656 L 14.769531 84.703125 Z M 14.769531 158.558594 " fill-opacity="1" fill-rule="nonzero"/></g><g clip-path="url(#id7)"><path fill="rgb(36.859131%, 9.01947%, 92.158508%)" d="M 96.960938 232.371094 C 96.039062 232.371094 95.117188 232.160156 94.265625 231.726562 C 92.265625 230.707031 91.007812 228.65625 91.007812 226.414062 L 91.007812 136.15625 C 91.007812 134.246094 91.921875 132.457031 93.464844 131.332031 L 180.910156 67.789062 C 182.71875 66.472656 185.117188 66.285156 187.109375 67.304688 C 189.105469 68.320312 190.359375 70.371094 190.359375 72.613281 L 190.359375 162.484375 C 190.359375 164.386719 189.453125 166.175781 187.917969 167.296875 L 100.472656 231.222656 C 99.433594 231.984375 98.203125 232.371094 96.960938 232.371094 Z M 102.917969 139.195312 L 102.917969 214.679688 L 178.457031 159.457031 L 178.457031 84.300781 Z M 102.917969 139.195312 " fill-opacity="1" fill-rule="nonzero"/></g><g clip-path="url(#id8)"><path fill="rgb(36.859131%, 9.01947%, 92.158508%)" d="M 96.960938 142.117188 C 95.75 142.117188 94.539062 141.746094 93.503906 141.003906 L 5.355469 77.972656 C 3.796875 76.859375 2.867188 75.0625 2.863281 73.144531 C 2.855469 71.226562 3.769531 69.425781 5.320312 68.296875 L 93.46875 4.371094 C 95.5625 2.855469 98.386719 2.863281 100.472656 4.382812 L 187.917969 68.308594 C 189.460938 69.4375 190.367188 71.234375 190.363281 73.144531 C 190.355469 75.050781 189.4375 76.84375 187.886719 77.960938 L 100.441406 140.992188 C 99.402344 141.738281 98.183594 142.117188 96.960938 142.117188 Z M 19.011719 73.089844 L 96.949219 128.824219 L 174.269531 73.089844 L 96.949219 16.5625 Z M 19.011719 73.089844 " fill-opacity="1" fill-rule="nonzero"/></g></g></g></g></svg>